# xmcd CD database file
#
# Track frame offsets:
#	150
#	17206
#	34392
#	49345
#	63968
#	80004
#	94317
#	109465
#	120301
#	134449
#	145422
#	165232
#	178385
#	191282
#	201141
#	217585
#	234053
#	249914
#	262266
#	275235
#
# Disc length: 3841 seconds
#
# Revision: 0
# Processed by: cddbd v1.5.2PL0 Copyright (c) Steve Scherf et al.
# Submitted via: CDex 1.70beta2
#
DISCID=270eff14
DTITLE=Various Artist - Cool Jazz Lounge Box [CD 4)
DYEAR=2007
DGENRE=Jazz
TTITLE0=Eartha Kitt - Lilac Wine
TTITLE1=Sarah Vaughan - Sophisticated Lady
TTITLE2=Billie Holiday - Do Your Duty
TTITLE3=Ruth Brown - Standing On The Corner
TTITLE4=Eartha Kitt - I Want To Be Evil
TTITLE5=Peggy Lee - Don't Smoke In Bed
TTITLE6=Dinah Washington - Time Out For Tears
TTITLE7=Ella Fitzgerald - I Must Have That Man
TTITLE8=Billie Holiday - Practice Makes Perfect
TTITLE9=Peggy Lee - Baby Don't Be Mad At Me
TTITLE10=Sarah Vaughn - Star Eyes
TTITLE11=Billie Holiday - Miss Brown To You
TTITLE12=Dinah Washington - You Satisfy
TTITLE13=Kay Starr - I'm The Lonesomest Gal In Town
TTITLE14=Della Reese - Stormy Weather
TTITLE15=Sarah Vaughn - Round Midnight
TTITLE16=Patti Page - Do Nothing Till You Hear From Me
TTITLE17=Billie Holiday - God Bless The Child
TTITLE18=Billie Holiday - What A Little Moonlight Can Do
TTITLE19=Kay Starr - Love Me Or Leave Me
EXTD=YEAR: 2007
EXTT0=
EXTT1=
EXTT2=
EXTT3=
EXTT4=
EXTT5=
EXTT6=
EXTT7=
EXTT8=
EXTT9=
EXTT10=
EXTT11=
EXTT12=
EXTT13=
EXTT14=
EXTT15=
EXTT16=
EXTT17=
EXTT18=
EXTT19=
PLAYORDER=
